# xmcd
#
# Track frame offsets: 
#        150
#        11732
#        24782
#        41237
#        54225
#        66457
#        78112
#        90692
#        104947
#        119485
#        129847
#        142665
#
# Disc length: 2051 seconds
#
# Revision: 1
# Processed by: cddbd v1.5.2PL0 Copyright (c) Steve Scherf et al.
# Submitted via: ExactAudioCopy v1.3
#
DISCID=9a08010c
DTITLE=Freddie Fender - The Best Of Freddie Fender
DYEAR=1900
DGENRE=Country
TTITLE0=Before The Next Teardrop Falls
TTITLE1=Wasted Days and Wasted Nights
TTITLE2=Secret Love
TTITLE3=You'll Lose A Good Thing
TTITLE4=Vaya Con Dios
TTITLE5=Livin' It Down
TTITLE6=Sugar Coated Love
TTITLE7=Wild Side Of Life
TTITLE8=Since I Met You Baby
TTITLE9=The Rains Came
TTITLE10=I Love My Rancho Grande
TTITLE11=Mathilda
EXTD=
EXTT0=
EXTT1=
EXTT2=
EXTT3=
EXTT4=
EXTT5=
EXTT6=
EXTT7=
EXTT8=
EXTT9=
EXTT10=
EXTT11=
PLAYORDER=
